# xmcd
#
# Track frame offsets:
#	150
#	15762
#	28657
#	42600
#	63908
#	79352
#	95410
#	108923
#	124133
#	140115
#	154863
#	167848
#	185511
#	202772
#	218208
#	233604
#	249040
#	266397
#
# Disc length: 3789 seconds
#
# Revision: 2
# Processed by: cddbd v1.5.1PL0 Copyright (c) Steve Scherf et al.
# Submitted via: audiograbber 1.83.01
#
DISCID=eb0ecb12
DTITLE=Various Artist - RC47
DYEAR=1998
DGENRE=Country
TTITLE0=Garth Brooks - Two Pina Coladas
TTITLE1=Randy Travis - Out Of My Bones
TTITLE2=Faith Hill - This Kiss
TTITLE3=Steve Wariner - Holes In The Floor Of Heaven
TTITLE4=Tracy Byrd - I'm From The Country
TTITLE5=Mindy McCready - You'll Never Know
TTITLE6=Trace Adkins - Lonely Won't Leave Me Alone
TTITLE7=Shania Twain - You're Still The One
TTITLE8=Alan Jackson - A House With No Curtains
TTITLE9=Michael Peterson - Too Good To Be True
TTITLE10=Clay Walker - Then What
TTITLE11=Patty Loveless - To Have You Back Again
TTITLE12=Toby Keith - Dream Walkin'
TTITLE13=Jo Dee Messina - Bye Bye
TTITLE14=Lonestar - Say When
TTITLE15=Kinleys - Just Between You And Me
TTITLE16=John Michael Montgomery - Love Working On You
TTITLE17=Mila Mason - Closer To Heaven
EXTD=
EXTT0=
EXTT1=
EXTT2=
EXTT3=
EXTT4=
EXTT5=
EXTT6=
EXTT7=
EXTT8=
EXTT9=
EXTT10=
EXTT11=
EXTT12=
EXTT13=
EXTT14=
EXTT15=
EXTT16=
EXTT17=
PLAYORDER=
